<svg xmlns="http://www.w3.org/2000/svg" xmlns:xlink="http://www.w3.org/1999/xlink" width="389.636" height="320.877" viewBox="0 0 389.636 320.877">
  <defs>
    <linearGradient id="linear-gradient" y1="0.5" x2="1" y2="0.5" gradientUnits="objectBoundingBox">
      <stop offset="0.013" stop-color="#81fe88"/>
      <stop offset="0.269" stop-color="#84fd85"/>
      <stop offset="0.5" stop-color="#8ffd7d"/>
      <stop offset="0.721" stop-color="#a1fc6f"/>
      <stop offset="0.934" stop-color="#bbfa5c"/>
      <stop offset="1" stop-color="#c5fa55"/>
    </linearGradient>
    <linearGradient id="linear-gradient-3" x1="0.5" y1="1.071" x2="0.5" y2="-0.537" gradientUnits="objectBoundingBox">
      <stop offset="0" stop-color="#231f20"/>
      <stop offset="0.051" stop-color="#4d4a4b"/>
      <stop offset="0.114" stop-color="#7c7a7a"/>
      <stop offset="0.18" stop-color="#a4a2a3"/>
      <stop offset="0.246" stop-color="#c5c4c4"/>
      <stop offset="0.314" stop-color="#dedede"/>
      <stop offset="0.384" stop-color="#f0f0f0"/>
      <stop offset="0.457" stop-color="#fbfbfb"/>
      <stop offset="0.538" stop-color="#fff"/>
      <stop offset="0.582" stop-color="#d3d2d2"/>
      <stop offset="0.636" stop-color="#a4a3a3"/>
      <stop offset="0.692" stop-color="#7d7a7b"/>
      <stop offset="0.749" stop-color="#5c595a"/>
      <stop offset="0.807" stop-color="#433f40"/>
      <stop offset="0.867" stop-color="#312d2e"/>
      <stop offset="0.93" stop-color="#262223"/>
      <stop offset="1" stop-color="#231f20"/>
    </linearGradient>
    <linearGradient id="linear-gradient-4" x1="0.5" y1="1.551" x2="0.5" y2="-1.102" gradientUnits="objectBoundingBox">
      <stop offset="0.013" stop-color="#fff"/>
      <stop offset="0.161" stop-color="#fbfbfb"/>
      <stop offset="0.295" stop-color="#f0f0f0"/>
      <stop offset="0.423" stop-color="#dedede"/>
      <stop offset="0.548" stop-color="#c5c4c4"/>
      <stop offset="0.67" stop-color="#a4a2a3"/>
      <stop offset="0.79" stop-color="#7c7a7a"/>
      <stop offset="0.907" stop-color="#4d4a4b"/>
      <stop offset="1" stop-color="#231f20"/>
    </linearGradient>
  </defs>
  <g id="homeicon" transform="translate(-270.966 -81.801)">
    <path id="Caminho_72" data-name="Caminho 72" d="M660.6,340.44a45.19,45.19,0,1,1-45.19-45.19A45.19,45.19,0,0,1,660.6,340.44Z" fill="url(#linear-gradient)" style="mix-blend-mode: screen;isolation: isolate"/>
    <circle id="Elipse_4" data-name="Elipse 4" cx="113.447" cy="113.447" r="113.447" transform="translate(270.966 242.24) rotate(-45)" fill="url(#linear-gradient)"/>
    <g id="homeicon-2" data-name="homeicon">
      <g id="Grupo_67" data-name="Grupo 67">
        <path id="Ret창ngulo_25" data-name="Ret창ngulo 25" d="M7.848,0H263.253A7.848,7.848,0,0,1,271.1,7.848V140.569a7.848,7.848,0,0,1-7.848,7.848H7.847A7.847,7.847,0,0,1,0,140.57V7.848A7.848,7.848,0,0,1,7.848,0Z" transform="translate(381.433 170.559)" fill="#3a3b45"/>
        <path id="Ret창ngulo_26" data-name="Ret창ngulo 26" d="M.93,0H133.438a.93.93,0,0,1,.93.93V256.545a.929.929,0,0,1-.929.929H.929A.929.929,0,0,1,0,256.545V.93A.93.93,0,0,1,.93,0Z" transform="translate(645.72 177.583) rotate(90)" fill="#27272d"/>
        <path id="Caminho_76" data-name="Caminho 76" d="M391.48,309.714a.93.93,0,0,1-.915-.942V177.583h-1.4a.932.932,0,0,0-.916.943V311.008a.932.932,0,0,0,.916.943H644.8a.93.93,0,0,0,.915-.943v-1.294Z" fill="#27272d" opacity="0.3" style="mix-blend-mode: multiply;isolation: isolate"/>
      </g>
      <g id="Grupo_68" data-name="Grupo 68">
        <path id="Caminho_77" data-name="Caminho 77" d="M557.616,318.979H476.352l-3.145,30.961h87.555ZM516.978,342.1a8.07,8.07,0,1,1,8.077-8.075A8.068,8.068,0,0,1,516.978,342.1Z" fill="#3a3b45"/>
        <path id="Caminho_78" data-name="Caminho 78" d="M557.616,318.979H476.352l-3.145,30.961h87.555ZM516.978,342.1a8.07,8.07,0,1,1,8.077-8.075A8.068,8.068,0,0,1,516.978,342.1Z" fill="url(#linear-gradient-3)" style="mix-blend-mode: multiply;isolation: isolate"/>
      </g>
      <g id="Grupo_69" data-name="Grupo 69">
        <path id="Caminho_79" data-name="Caminho 79" d="M566.936,356.585H467.029l6.163-6.647h87.582Z" fill="#3a3b45"/>
        <path id="Caminho_80" data-name="Caminho 80" d="M566.936,356.585H467.029l6.163-6.647h87.582Z" fill="url(#linear-gradient-4)" style="mix-blend-mode: multiply;isolation: isolate"/>
      </g>
    </g>
    <path id="Caminho_100" data-name="Caminho 100" d="M435.891,322.443l-.442-.443-3.511-3.51-.533-.533" fill="none"/>
  </g>
</svg>
