<svg xmlns="http://www.w3.org/2000/svg" xmlns:xlink="http://www.w3.org/1999/xlink" width="25" height="25" viewBox="0 0 25 25">
  <defs>
    <linearGradient id="linear-gradient" y1="-0.021" x2="1" y2="1.025" gradientUnits="objectBoundingBox">
      <stop offset="0" stop-color="#cc5cfb"/>
      <stop offset="1" stop-color="#6236ff"/>
    </linearGradient>
    <clipPath id="clip-img_less_btn">
      <rect width="25" height="25"/>
    </clipPath>
  </defs>
  <g id="img_less_btn" clip-path="url(#clip-img_less_btn)">
    <g id="zoom_out_black_24dp" transform="translate(1)">
      <path id="Caminho_134" data-name="Caminho 134" d="M0,0H24V24H0Z" fill="none"/>
      <path id="Caminho_135" data-name="Caminho 135" d="M21.32,19.122H20.162l-.41-.4a9.553,9.553,0,1,0-1.026,1.026l.4.41V21.32l6.243,6.229a1.53,1.53,0,0,0,2.169,0l.015-.015a1.53,1.53,0,0,0,0-2.169Zm-8.793,0a6.6,6.6,0,1,1,6.6-6.6A6.586,6.586,0,0,1,12.527,19.122ZM9.6,11.794h5.862a.733.733,0,1,1,0,1.466H9.6a.733.733,0,0,1,0-1.466Z" transform="translate(-4 -3)" fill="url(#linear-gradient)"/>
    </g>
  </g>
</svg>
