<svg xmlns="http://www.w3.org/2000/svg" xmlns:xlink="http://www.w3.org/1999/xlink" width="25" height="25" viewBox="0 0 25 25">
  <defs>
    <linearGradient id="linear-gradient" x1="0.5" x2="0.5" y2="1" gradientUnits="objectBoundingBox">
      <stop offset="0" stop-color="#cc5cfb"/>
      <stop offset="1" stop-color="#6236ff"/>
    </linearGradient>
    <clipPath id="clip-img_home_btn">
      <rect width="25" height="25"/>
    </clipPath>
  </defs>
  <g id="img_home_btn" clip-path="url(#clip-img_home_btn)">
    <g id="person_white_24dp" transform="translate(1 -1)">
      <path id="Caminho_137" data-name="Caminho 137" d="M0,0H24V24H0Z" fill="none"/>
      <path id="Caminho_138" data-name="Caminho 138" d="M16.5,7.125a3.125,3.125,0,1,1-3.125,3.125A3.134,3.134,0,0,1,16.5,7.125m0,15.625c4.219,0,9.062,2.016,9.375,3.125H7.125C7.484,24.75,12.3,22.75,16.5,22.75M16.5,4a6.25,6.25,0,1,0,6.25,6.25A6.248,6.248,0,0,0,16.5,4Zm0,15.625c-4.172,0-12.5,2.094-12.5,6.25V29H29V25.875C29,21.719,20.672,19.625,16.5,19.625Z" transform="translate(-5 -3)" fill="url(#linear-gradient)"/>
    </g>
  </g>
</svg>
