<svg xmlns="http://www.w3.org/2000/svg" xmlns:xlink="http://www.w3.org/1999/xlink" width="25" height="25" viewBox="0 0 25 25">
  <defs>
    <linearGradient id="linear-gradient" y1="-0.021" x2="1" y2="1" gradientUnits="objectBoundingBox">
      <stop offset="0" stop-color="#6236ff"/>
      <stop offset="1" stop-color="#cc5cfb"/>
    </linearGradient>
    <clipPath id="clip-img_more_btn">
      <rect width="25" height="25"/>
    </clipPath>
  </defs>
  <g id="img_more_btn" clip-path="url(#clip-img_more_btn)">
    <g id="add_circle_white_24dp" transform="translate(0)">
      <path id="Caminho_124" data-name="Caminho 124" d="M0,0H40V40H0Z" fill="none"/>
    </g>
    <g id="zoom_in_black_24dp" transform="translate(1)">
      <path id="Caminho_132" data-name="Caminho 132" d="M0,0H24V24H0Z" fill="none"/>
      <path id="Caminho_133" data-name="Caminho 133" d="M21.321,19.122H20.163l-.41-.4a9.554,9.554,0,1,0-1.026,1.026l.4.41V21.32l6.244,6.229a1.531,1.531,0,0,0,2.169,0l.015-.015a1.53,1.53,0,0,0,0-2.169Zm-8.794,0a6.6,6.6,0,1,1,6.6-6.6A6.587,6.587,0,0,1,12.527,19.122Zm0-10.259a.726.726,0,0,0-.733.733v2.2H9.6a.733.733,0,1,0,0,1.466h2.2v2.2a.733.733,0,0,0,1.466,0v-2.2h2.2a.733.733,0,1,0,0-1.466h-2.2V9.6A.726.726,0,0,0,12.527,8.863Z" transform="translate(-4 -3)" fill="url(#linear-gradient)"/>
    </g>
    <g id="person_white_24dp" transform="translate(-20 16)">
      <path id="Caminho_136" data-name="Caminho 136" d="M0,0H24V24H0Z" fill="none"/>
    </g>
  </g>
</svg>
